<mxfile host="app.diagrams.net" modified="2024-01-24T15:56:34.492Z" agent="Mozilla/5.0 (X11; Linux x86_64) AppleWebKit/537.36 (KHTML, like Gecko) Chrome/120.0.0.0 Safari/537.36" etag="hdml8098E8-St6nO-c9F" version="22.1.21" type="device">
  <diagram name="Page-1" id="rvl7PiO2fuU-eggyy1Lc">
    <mxGraphModel dx="1434" dy="805" grid="1" gridSize="10" guides="1" tooltips="1" connect="1" arrows="1" fold="1" page="1" pageScale="1" pageWidth="827" pageHeight="1169" math="0" shadow="0">
      <root>
        <mxCell id="0" />
        <mxCell id="1" parent="0" />
        <mxCell id="MWVft6qMY29s-5dObQhs-2" value="" style="rounded=0;whiteSpace=wrap;html=1;" parent="1" vertex="1">
          <mxGeometry x="180" y="90" width="290" height="420" as="geometry" />
        </mxCell>
        <mxCell id="MWVft6qMY29s-5dObQhs-8" style="rounded=0;orthogonalLoop=1;jettySize=auto;html=1;entryX=0;entryY=0.5;entryDx=0;entryDy=0;backgroundOutline=0;" parent="1" source="MWVft6qMY29s-5dObQhs-1" target="MWVft6qMY29s-5dObQhs-7" edge="1">
          <mxGeometry relative="1" as="geometry" />
        </mxCell>
        <mxCell id="MWVft6qMY29s-5dObQhs-1" value="Autonomes Fahrzeug" style="shape=umlActor;verticalLabelPosition=bottom;verticalAlign=top;html=1;outlineConnect=0;" parent="1" vertex="1">
          <mxGeometry x="70" y="155" width="30" height="60" as="geometry" />
        </mxCell>
        <mxCell id="MWVft6qMY29s-5dObQhs-3" value="Autonomes Fahrzeug" style="text;html=1;strokeColor=none;fillColor=none;align=center;verticalAlign=middle;whiteSpace=wrap;rounded=0;" parent="1" vertex="1">
          <mxGeometry x="180" y="90" width="210" height="30" as="geometry" />
        </mxCell>
        <mxCell id="MWVft6qMY29s-5dObQhs-14" style="rounded=0;orthogonalLoop=1;jettySize=auto;html=1;entryX=1;entryY=0.5;entryDx=0;entryDy=0;" parent="1" source="MWVft6qMY29s-5dObQhs-6" target="MWVft6qMY29s-5dObQhs-22" edge="1">
          <mxGeometry relative="1" as="geometry" />
        </mxCell>
        <mxCell id="MWVft6qMY29s-5dObQhs-6" value="GPS&lt;br&gt;" style="shape=umlActor;verticalLabelPosition=bottom;verticalAlign=top;html=1;outlineConnect=0;" parent="1" vertex="1">
          <mxGeometry x="550" y="100" width="30" height="60" as="geometry" />
        </mxCell>
        <mxCell id="MWVft6qMY29s-5dObQhs-25" style="rounded=0;orthogonalLoop=1;jettySize=auto;html=1;dashed=1;" parent="1" source="MWVft6qMY29s-5dObQhs-7" target="MWVft6qMY29s-5dObQhs-22" edge="1">
          <mxGeometry relative="1" as="geometry" />
        </mxCell>
        <mxCell id="bhKdWS18jcgg6gf1reEu-3" value="&amp;lt;&amp;lt;include&amp;gt;&amp;gt;" style="edgeLabel;html=1;align=center;verticalAlign=middle;resizable=0;points=[];" parent="MWVft6qMY29s-5dObQhs-25" vertex="1" connectable="0">
          <mxGeometry x="-0.3187" y="-4" relative="1" as="geometry">
            <mxPoint as="offset" />
          </mxGeometry>
        </mxCell>
        <mxCell id="MWVft6qMY29s-5dObQhs-28" style="rounded=0;orthogonalLoop=1;jettySize=auto;html=1;entryX=0.5;entryY=0;entryDx=0;entryDy=0;dashed=1;" parent="1" source="MWVft6qMY29s-5dObQhs-7" target="MWVft6qMY29s-5dObQhs-27" edge="1">
          <mxGeometry relative="1" as="geometry" />
        </mxCell>
        <mxCell id="bhKdWS18jcgg6gf1reEu-2" value="&amp;lt;&amp;lt;include&amp;gt;&amp;gt;" style="edgeLabel;html=1;align=center;verticalAlign=middle;resizable=0;points=[];" parent="MWVft6qMY29s-5dObQhs-28" vertex="1" connectable="0">
          <mxGeometry x="-0.3473" y="2" relative="1" as="geometry">
            <mxPoint as="offset" />
          </mxGeometry>
        </mxCell>
        <mxCell id="MWVft6qMY29s-5dObQhs-7" value="Planen der Trajektorie" style="ellipse;whiteSpace=wrap;html=1;" parent="1" vertex="1">
          <mxGeometry x="260" y="150" width="120" height="70" as="geometry" />
        </mxCell>
        <mxCell id="MWVft6qMY29s-5dObQhs-15" style="rounded=0;orthogonalLoop=1;jettySize=auto;html=1;entryX=1;entryY=0.5;entryDx=0;entryDy=0;" parent="1" source="MWVft6qMY29s-5dObQhs-10" target="MWVft6qMY29s-5dObQhs-27" edge="1">
          <mxGeometry relative="1" as="geometry" />
        </mxCell>
        <mxCell id="MWVft6qMY29s-5dObQhs-10" value="Hinderniserkennungssystem" style="shape=umlActor;verticalLabelPosition=bottom;verticalAlign=top;html=1;outlineConnect=0;" parent="1" vertex="1">
          <mxGeometry x="550" y="320" width="30" height="60" as="geometry" />
        </mxCell>
        <mxCell id="MWVft6qMY29s-5dObQhs-16" style="rounded=0;orthogonalLoop=1;jettySize=auto;html=1;entryX=1;entryY=0.5;entryDx=0;entryDy=0;" parent="1" source="MWVft6qMY29s-5dObQhs-13" target="MWVft6qMY29s-5dObQhs-27" edge="1">
          <mxGeometry relative="1" as="geometry" />
        </mxCell>
        <mxCell id="MWVft6qMY29s-5dObQhs-13" value="Verkehrszeichenerkennungssystem" style="shape=umlActor;verticalLabelPosition=bottom;verticalAlign=top;html=1;outlineConnect=0;" parent="1" vertex="1">
          <mxGeometry x="550" y="410" width="30" height="60" as="geometry" />
        </mxCell>
        <mxCell id="MWVft6qMY29s-5dObQhs-22" value="Lokalisieren" style="ellipse;whiteSpace=wrap;html=1;" parent="1" vertex="1">
          <mxGeometry x="310" y="290" width="120" height="70" as="geometry" />
        </mxCell>
        <mxCell id="MWVft6qMY29s-5dObQhs-27" value="Umgebung überprüfen" style="ellipse;whiteSpace=wrap;html=1;" parent="1" vertex="1">
          <mxGeometry x="225" y="400" width="120" height="70" as="geometry" />
        </mxCell>
        <mxCell id="klFBFFg9kIaZKT8DLO6I-6" style="edgeStyle=orthogonalEdgeStyle;rounded=0;orthogonalLoop=1;jettySize=auto;html=1;entryX=0;entryY=0.5;entryDx=0;entryDy=0;" parent="1" source="klFBFFg9kIaZKT8DLO6I-1" target="MWVft6qMY29s-5dObQhs-27" edge="1">
          <mxGeometry relative="1" as="geometry" />
        </mxCell>
        <mxCell id="klFBFFg9kIaZKT8DLO6I-1" value="Hindernis" style="shape=umlActor;verticalLabelPosition=bottom;verticalAlign=top;html=1;outlineConnect=0;" parent="1" vertex="1">
          <mxGeometry x="70" y="405" width="30" height="60" as="geometry" />
        </mxCell>
        <mxCell id="bhKdWS18jcgg6gf1reEu-1" value="uc [Paket] Trajektorie [Autonomes Fahrzeug - Trajektorie]" style="shape=umlFrame;whiteSpace=wrap;html=1;pointerEvents=0;width=400;height=30;" parent="1" vertex="1">
          <mxGeometry x="10" y="40" width="740" height="490" as="geometry" />
        </mxCell>
      </root>
    </mxGraphModel>
  </diagram>
</mxfile>
